<svg version="1.1" xmlns="http://www.w3.org/2000/svg" xmlns:xlink="http://www.w3.org/1999/xlink" x="0px" y="0px" viewBox="0 0 1000 1000" enable-background="new 0 0 1000 1000" xml:space="preserve">
<g><path d="M620.4,523.5c-17.3,0-30.8,6.3-40.6,18.9c-9.8,12.6-14.7,30.1-14.7,52.4c0,21.4,4.9,38.2,14.6,50.3c9.7,12.1,22.9,18.2,39.7,18.2c16.9,0,30.1-6.3,39.7-19c9.5-12.7,14.3-30.1,14.3-52.2c0-22-4.7-38.9-14.2-50.7C649.7,529.4,636.8,523.5,620.4,523.5z"/><path d="M428.5,445.7c9.5-12.6,14.3-30,14.3-52.4c0-21.8-4.7-38.7-14.2-50.9c-9.4-12.1-22.4-18.2-38.7-18.2c-17.1,0-30.6,6.3-40.5,19c-9.9,12.7-14.8,30.1-14.8,52.2c0,21.8,4.9,38.7,14.6,50.9c9.7,12.1,22.9,18.2,39.7,18.2C405.7,464.6,419,458.3,428.5,445.7z"/><path d="M982.1,484.6l-86.5-70c-10.5-8.5-15.1-25.7-10.3-38.3l39.9-103.9c4.8-12.6-2.1-24.6-15.4-26.7l-110-17.4c-13.3-2.1-25.9-14.7-28.1-28l-17.4-110c-1.7-10.4-9.4-17-18.7-17c-2.6,0-5.3,0.5-8,1.5l-103.9,39.9c-3.4,1.3-7.1,1.9-10.9,1.9c-10.3,0-21.2-4.5-27.4-12.2l-70-86.5c-4.2-5.2-9.8-7.9-15.4-7.9c-5.6,0-11.2,2.6-15.4,7.9l-70,86.5c-6.2,7.7-17.1,12.2-27.4,12.2c-3.8,0-7.5-0.6-10.9-1.9L272.3,74.7c-2.7-1.1-5.4-1.5-8-1.5c-9.3,0-17.1,6.5-18.7,17l-17.4,110c-2.1,13.3-14.7,25.9-28,28l-110,17.4c-13.3,2.1-20.3,14.1-15.4,26.7l39.9,103.9c4.8,12.6,0.2,29.8-10.3,38.3l-86.5,70c-10.5,8.5-10.5,22.4,0,30.9l86.5,70c10.5,8.5,15.1,25.7,10.3,38.3L74.7,727.7c-4.8,12.6,2.1,24.6,15.4,26.7l110,17.4c13.3,2.1,25.9,14.7,28,28.1l17.4,110c1.7,10.4,9.4,17,18.7,17c2.6,0,5.3-0.5,8-1.5l103.9-39.9c3.4-1.3,7.1-1.9,10.9-1.9c10.3,0,21.2,4.5,27.4,12.2l70,86.5c4.2,5.2,9.8,7.9,15.4,7.9c5.6,0,11.2-2.6,15.4-7.9l70-86.5c6.2-7.7,17.1-12.2,27.4-12.2c3.8,0,7.5,0.6,10.9,1.9l103.9,39.9c2.7,1,5.4,1.5,8,1.5c9.3,0,17.1-6.5,18.7-17l17.4-110c2.1-13.3,14.7-25.9,28.1-28.1l110-17.4c13.3-2.1,20.3-14.1,15.4-26.7l-39.9-103.9c-4.8-12.6-0.2-29.8,10.3-38.3l86.5-70C992.6,506.9,992.6,493.1,982.1,484.6z M322.4,468.3c-15.8-17.5-23.8-41-23.8-70.3c0-32,8.4-57.3,25.1-75.7c16.7-18.4,39.3-27.7,67.7-27.7c27.5,0,48.9,8.5,64.1,25.6c15.2,17.1,22.8,41.1,22.8,72.1c0,31-8.5,55.7-25.5,74.4c-17,18.6-39.3,27.9-66.8,27.9C359.5,494.6,338.2,485.8,322.4,468.3z M396.9,690.3h-38.6l248-389.7h38.9L396.9,690.3z M683.4,665.6c-17,18.6-39.3,27.9-66.8,27.9c-26.6,0-47.9-8.8-63.7-26.5c-15.8-17.6-23.8-41-23.8-70.2c0-32,8.5-57.4,25.4-76c16.9-18.6,39.4-27.9,67.5-27.9c27.4,0,48.7,8.6,64,25.9c15.3,17.3,22.9,41.5,22.9,72.6C708.9,622.3,700.4,646.9,683.4,665.6z"/></g>
</svg>